# xmcd
#
# Track frame offsets:
#	150
#	16070
#	28477
#	31770
#	49321
#	66591
#	79190
#	92368
#	104426
#	118928
#	136083
#	151091
#	172019
#	184520
#
# Disc length: 2691 seconds
# Revision: 0
# Processed by: cddbd v1.5.2PL0 Copyright (c) Steve Scherf et al.
# Submitted via: dBpowerAMP V12.0
#
DISCID=b30a810e
DTITLE=Mitch Mann - Blackwater Creek
DYEAR=2015
DGENRE=Blues Country Acoustic
TTITLE0=Goin' Down the Road Feelin' Bad
TTITLE1=Baby Don't Forget
TTITLE2=Crows (Intro)
TTITLE3=Crows
TTITLE4=St. Louis Blues
TTITLE5=Make This Last Minute Last
TTITLE6=More Than I Could Ever Show
TTITLE7=Sometimes a Rock
TTITLE8=Blackwater Creek
TTITLE9=Detour You
TTITLE10=Hold Her While You Got Her
TTITLE11=Tom Clark
TTITLE12=It's Time
TTITLE13=Good Things
EXTD=
EXTT0=
EXTT1=
EXTT2=
EXTT3=
EXTT4=
EXTT5=
EXTT6=
EXTT7=
EXTT8=
EXTT9=
EXTT10=
EXTT11=
EXTT12=
EXTT13=
PLAYORDER=
